# xmcd
#
# Track frame offsets:
# 150
# 22295
# 39514
# 52216
# 68417
# 83713
# 102844
# 123321
# 139142
# 153513
# 172096
# 191773
# 210107
#
# Disc length: 3070 seconds
#
#
# Revision: 0
# Processed by: cddbd v1.5.2PL0 Copyright (c) Steve Scherf et al.
# Submitted via: FreeRIP 2.941 
#
DISCID=b30bfc0d
DTITLE=Takáts Tamás Blues Band - Ébredj fel
DYEAR=2008
DGENRE=
TTITLE0=Nem elég
TTITLE1=Leszel te még milliomos
TTITLE2=Privatizációs blues
TTITLE3=Olyan szép
TTITLE4=Dobd el
TTITLE5=Ez az a nap
TTITLE6=Száll, repül
TTITLE7=Élnem kell
TTITLE8=Jó, hogy nem
TTITLE9=Esõ
TTITLE10=Lesz lakásom
TTITLE11=Álom
TTITLE12=Ébredj fel!
EXTD=
EXTT0=
EXTT1=
EXTT2=
EXTT3=
EXTT4=
EXTT5=
EXTT6=
EXTT7=
EXTT8=
EXTT9=
EXTT10=
EXTT11=
EXTT12=
PLAYORDER=
